<?xml version="1.0" standalone="no"?>
<!DOCTYPE svg PUBLIC "-//W3C//DTD SVG 20010904//EN"
 "http://www.w3.org/TR/2001/REC-SVG-20010904/DTD/svg10.dtd">
<svg version="1.0" xmlns="http://www.w3.org/2000/svg"
 width="512.000000pt" height="512.000000pt" viewBox="0 0 512.000000 512.000000"
 preserveAspectRatio="xMidYMid meet">

<g transform="translate(0.000000,512.000000) scale(0.100000,-0.100000)"
fill="#000000" stroke="none">
<path d="M3051 5099 c-53 -17 -76 -32 -126 -82 -52 -53 -65 -73 -84 -135 -29
-90 -25 -163 14 -250 l27 -61 -76 -90 -76 -89 -50 19 c-31 12 -75 19 -115 19
-40 0 -84 -7 -115 -19 l-50 -19 -76 89 -76 90 26 59 c36 83 42 143 22 220 -28
110 -81 175 -186 231 -63 33 -212 35 -282 2 -66 -30 -129 -92 -164 -160 -26
-51 -29 -68 -29 -148 0 -106 19 -157 86 -230 92 -99 204 -127 365 -90 30 7 35
3 109 -84 52 -62 75 -98 72 -109 -3 -9 -13 -35 -21 -57 -18 -47 -20 -154 -5
-210 26 -92 111 -183 202 -216 l37 -13 0 -93 0 -93 85 0 85 0 0 95 c0 57 4 95
10 95 26 0 108 48 143 84 99 102 124 249 66 392 -12 31 -11 33 67 126 l80 95
40 -14 c55 -20 170 -18 225 3 95 37 178 123 209 219 7 22 13 70 12 106 -4 234
-227 391 -451 318z m-982 -188 c37 -27 70 -91 71 -136 0 -40 -38 -114 -71
-138 -53 -39 -145 -39 -197 0 -52 39 -67 70 -67 138 0 71 17 103 76 143 46 32
138 28 188 -7z m1171 14 c90 -47 118 -178 53 -255 -69 -82 -199 -84 -262 -4
-66 84 -42 211 49 256 43 22 121 23 160 3z m-589 -688 c53 -35 79 -82 79 -139
0 -89 -53 -155 -137 -173 -109 -22 -218 91 -193 202 26 112 160 172 251 110z"/>
<path d="M224 5089 c-75 -28 -137 -88 -176 -167 -29 -59 -33 -76 -33 -147 0
-67 5 -90 29 -143 73 -158 262 -235 426 -173 l54 21 28 -27 28 -27 60 59 60
59 -29 29 -29 29 21 47 c16 35 22 66 22 126 0 71 -4 88 -33 147 -61 124 -166
188 -305 187 -47 0 -90 -7 -123 -20z m217 -172 c140 -94 77 -309 -91 -309 -92
0 -161 64 -167 155 -7 101 64 177 167 177 43 0 65 -6 91 -23z"/>
<path d="M4654 5089 c-97 -37 -175 -126 -204 -232 -17 -62 -8 -162 18 -212
l20 -40 -29 -30 -29 -31 60 -59 60 -59 28 27 28 27 54 -21 c164 -62 344 10
422 169 29 59 33 76 33 147 -1 66 -6 91 -28 140 -36 76 -110 147 -183 175 -72
27 -180 26 -250 -1z m206 -167 c66 -33 103 -119 81 -192 -23 -78 -81 -122
-161 -122 -58 0 -101 21 -137 69 -24 31 -28 46 -28 97 0 69 24 113 79 147 40
24 119 25 166 1z"/>
<path d="M757 4362 l-57 -58 50 -49 50 -49 60 59 60 59 -47 48 c-26 26 -50 48
-53 48 -3 0 -31 -26 -63 -58z"/>
<path d="M4257 4372 l-47 -48 60 -59 60 -59 50 49 50 49 -57 58 c-32 32 -60
58 -63 58 -3 0 -27 -22 -53 -48z"/>
<path d="M1079 4237 c-119 -50 -183 -128 -209 -251 -15 -75 -7 -135 31 -212
56 -118 167 -187 299 -188 57 0 87 5 125 22 l49 23 183 -183 183 -183 60 60
60 60 -181 181 -180 181 21 64 c43 127 14 256 -80 349 -67 68 -128 94 -225 98
-66 2 -90 -2 -136 -21z m198 -163 c104 -50 124 -197 38 -273 -91 -79 -217 -54
-266 53 -24 53 -24 90 2 143 39 81 142 116 226 77z"/>
<path d="M3800 4238 c-76 -29 -160 -114 -188 -191 -29 -76 -29 -167 -1 -243
l21 -56 -181 -182 -181 -181 60 -60 60 -60 183 183 183 183 49 -23 c38 -17 68
-22 125 -22 133 1 242 69 302 191 28 57 32 75 31 141 -1 117 -41 203 -127 271
-89 71 -227 91 -336 49z m209 -169 c133 -75 108 -269 -40 -309 -159 -43 -278
157 -166 279 49 53 141 67 206 30z"/>
<path d="M2401 3395 c-186 -41 -305 -107 -441 -244 -83 -83 -103 -110 -148
-201 -73 -146 -94 -234 -94 -390 0 -156 21 -244 94 -390 45 -91 65 -118 148
-201 65 -66 120 -111 175 -143 326 -189 736 -144 1006 112 201 189 295 438
268 709 -43 435 -413 766 -851 762 -51 0 -122 -7 -157 -14z m313 -170 c38 -8
107 -33 154 -56 69 -33 102 -58 172 -128 121 -121 179 -237 200 -403 17 -138
-14 -289 -84 -412 l-34 -60 -32 65 c-46 90 -107 183 -173 260 l-56 66 19 52
c27 69 26 173 0 245 -43 114 -162 202 -289 213 -252 23 -436 -234 -337 -472
l15 -36 -55 -66 c-65 -77 -128 -171 -173 -262 -31 -61 -33 -63 -47 -42 -27 39
-73 146 -91 211 -22 85 -22 242 2 330 34 128 97 232 203 332 81 77 201 141
302 162 86 19 218 19 304 1z m-50 -359 c47 -35 66 -74 66 -133 0 -146 -159
-223 -274 -132 -74 58 -79 188 -10 251 63 57 155 63 218 14z m-99 -471 c61 0
91 5 127 22 l47 21 43 -51 c78 -92 118 -153 163 -250 25 -52 45 -98 45 -103 0
-22 -147 -99 -246 -130 -82 -25 -276 -25 -359 0 -70 21 -190 78 -224 106 l-23
20 23 58 c43 107 96 192 186 299 l44 51 47 -21 c36 -17 66 -22 127 -22z"/>
<path d="M258 2885 c-62 -17 -107 -45 -158 -101 -64 -70 -84 -123 -85 -224 0
-73 4 -93 28 -142 36 -74 96 -134 165 -166 76 -36 202 -38 274 -5 66 30 143
106 173 169 l26 54 89 0 90 0 0 90 0 90 -93 0 -94 0 -12 39 c-14 48 -89 133
-145 165 -75 43 -172 55 -258 31z m155 -169 c72 -30 117 -114 103 -192 -9 -45
-67 -109 -113 -125 -106 -35 -223 51 -223 163 0 114 127 199 233 154z"/>
<path d="M4673 2882 c-89 -32 -161 -96 -200 -179 l-24 -53 -90 0 -89 0 0 -90
0 -90 90 0 89 0 25 -52 c67 -141 220 -220 369 -189 77 16 131 46 186 106 64
69 84 124 85 225 0 72 -4 93 -26 140 -35 72 -100 137 -167 168 -73 34 -176 40
-248 14z m170 -166 c44 -18 95 -78 103 -121 19 -104 -64 -205 -169 -205 -84 0
-167 84 -167 170 0 116 127 201 233 156z"/>
<path d="M1034 2637 c-3 -8 -4 -47 -2 -88 l3 -74 83 -3 82 -3 0 91 0 90 -80 0
c-58 0 -82 -4 -86 -13z"/>
<path d="M1374 2637 c-3 -8 -4 -47 -2 -88 l3 -74 83 -3 82 -3 0 91 0 90 -80 0
c-58 0 -82 -4 -86 -13z"/>
<path d="M3590 2560 l0 -91 83 3 82 3 0 85 0 85 -82 3 -83 3 0 -91z"/>
<path d="M3930 2560 l0 -91 83 3 82 3 0 85 0 85 -82 3 -83 3 0 -91z"/>
<path d="M1555 1670 l-181 -181 -49 23 c-79 35 -184 31 -268 -10 -104 -51
-176 -150 -192 -263 -8 -53 9 -147 35 -199 28 -56 96 -119 158 -148 49 -23 71
-27 147 -27 75 0 98 4 140 25 158 77 231 254 175 419 l-21 64 180 181 181 181
-58 58 c-32 31 -60 57 -62 57 -3 0 -86 -81 -185 -180z m-290 -319 c170 -77
120 -321 -66 -321 -60 0 -122 38 -148 93 -26 53 -26 90 -2 142 22 49 48 73 98
91 51 18 71 17 118 -5z"/>
<path d="M3327 1793 l-57 -58 181 -181 181 -182 -21 -56 c-47 -127 -18 -260
78 -357 148 -148 388 -129 513 40 42 58 60 117 61 201 1 132 -68 242 -190 302
-84 41 -189 45 -268 10 l-49 -23 -181 181 c-99 99 -182 180 -185 180 -3 0 -31
-26 -63 -57z m645 -433 c147 -41 169 -235 35 -311 -31 -17 -50 -20 -93 -17
-90 8 -144 62 -152 151 -5 60 11 100 56 142 43 40 93 52 154 35z"/>
<path d="M2480 1447 l0 -93 -37 -13 c-91 -33 -176 -124 -202 -216 -15 -56 -13
-163 5 -210 8 -22 18 -48 21 -57 3 -11 -21 -48 -73 -110 -43 -51 -78 -94 -79
-96 -1 -1 -19 5 -40 14 -52 21 -168 21 -226 -2 -144 -56 -243 -214 -224 -357
10 -73 57 -168 106 -212 175 -158 438 -108 541 103 29 59 33 76 33 147 -1 66
-6 91 -29 142 l-28 62 76 90 76 89 50 -19 c66 -25 164 -25 230 0 l50 19 76
-89 76 -90 -25 -57 c-34 -76 -42 -137 -27 -208 23 -109 77 -183 172 -235 59
-32 69 -34 158 -34 85 0 101 3 154 30 65 33 123 93 157 163 19 38 23 64 23
137 1 79 -2 97 -27 146 -30 63 -93 126 -155 158 -74 38 -192 44 -271 13 -23
-8 -31 -1 -105 86 -78 93 -79 95 -67 126 58 143 33 290 -66 392 -35 36 -117
84 -143 84 -6 0 -10 38 -10 95 l0 95 -85 0 -85 0 0 -93z m181 -282 c133 -87
65 -305 -96 -305 -149 0 -224 180 -118 286 58 59 143 66 214 19z m-592 -682
c33 -24 71 -98 71 -138 -1 -45 -34 -109 -71 -136 -50 -35 -142 -39 -188 -7
-59 40 -76 72 -76 143 0 68 15 99 67 138 52 39 144 39 197 0z m1172 11 c118
-59 115 -239 -3 -300 -42 -22 -138 -15 -176 12 -34 25 -72 98 -72 139 0 40 38
114 71 138 50 36 122 40 180 11z"/>
<path d="M747 862 l-47 -48 60 -59 60 -59 50 49 50 49 -57 58 c-32 32 -60 58
-63 58 -3 0 -27 -22 -53 -48z"/>
<path d="M4267 852 l-57 -58 50 -49 50 -49 60 59 60 59 -47 48 c-26 26 -50 48
-53 48 -3 0 -31 -26 -63 -58z"/>
<path d="M299 679 c-113 -17 -208 -89 -255 -192 -24 -52 -29 -75 -29 -142 0
-71 4 -88 33 -147 60 -122 166 -188 302 -188 136 0 242 66 302 188 29 59 33
76 33 147 0 60 -6 91 -22 126 l-21 47 29 29 29 29 -60 59 -60 59 -28 -27 -28
-27 -49 19 c-63 23 -117 29 -176 20z m131 -184 c81 -41 113 -150 67 -230 -33
-59 -78 -85 -147 -85 -103 0 -174 76 -167 177 9 123 135 194 247 138z"/>
<path d="M4487 632 l-57 -58 29 -28 30 -29 -21 -41 c-42 -83 -34 -210 20 -303
104 -182 367 -220 521 -75 73 68 105 144 106 247 0 71 -4 88 -33 147 -78 159
-258 231 -422 169 l-54 -21 -26 25 c-14 14 -28 25 -31 25 -2 0 -30 -26 -62
-58z m375 -138 c56 -29 96 -112 84 -177 -15 -83 -83 -137 -169 -137 -59 0 -98
19 -134 67 -24 31 -28 46 -28 98 0 52 4 67 28 98 54 72 138 91 219 51z"/>
</g>
</svg>
